<svg xmlns="http://www.w3.org/2000/svg" width="1483.643" height="768" viewBox="0 0 1483.643 768">
  <g id="Grupo_8" data-name="Grupo 8" transform="translate(-1218.565 -2163)">
    <path id="path2987" d="M431.911,819.025c-1.8-1.786.725-7,3.781-7.788,3.727-.965,7.29,2.762,5.949,6.222C440.72,819.832,433.846,820.939,431.911,819.025Zm-10.556-14.684a9.2,9.2,0,0,0-4.9-5.76c-3.433-1.292-3.78-2.422-3.619-11.777a118.322,118.322,0,0,0-1.123-17.926c-.979-5.707-.648-8.827,1.342-12.635,3.408-6.522,3.44-17.291.06-20.067-3.245-2.665-2.652-10.55,1.289-17.151,1.617-2.708,2.947-6.03,2.956-7.384s1.129-4.573,2.489-7.153c2.476-4.7,6.624-18.132,8.951-28.992,1.453-6.78.986-27.5-.958-42.487-1.305-10.064-1.7-10.766-8.828-15.72-9.061-6.3-21.556-23.325-21.556-29.378,0-.989-2.8-4.124-6.218-6.966-5.6-4.652-6.2-5.92-6.059-12.719.094-4.437,1.258-8.753,2.823-10.464,1.465-1.6,3.155-5.953,3.755-9.67.76-4.706,2.482-7.774,5.673-10.108,5.024-3.676,5.181-7.849.672-17.822-2.363-5.227-2.377-5.232-8.164-2.84-5.635,2.33-5.929,2.262-10.581-2.448-2.632-2.664-5.233-4.4-5.779-3.861s-.993-.178-.993-1.6-3.321-4.663-7.38-7.2-8.273-6.271-9.363-8.288c-2.584-4.778-14.649-10.331-21.863-10.063-6.058.227-34.35-12.226-34.35-15.117a1.926,1.926,0,0,0-2.073-1.629c-2.379-.04-10.191-10.5-11.9-15.927-.633-2.01-3.668-6.638-6.746-10.284a66.847,66.847,0,0,1-8.345-12.754c-3.119-6.951-9.758-12.589-13.258-11.26-2.023.768-2.027,1.8-.027,7.411,2.213,6.207,7.068,14.835,9.339,16.595,1.867,1.447,3.44,8.2,1.91,8.2-3.5,0-15.316-17.174-17.871-25.965-1.489-5.123-4.65-11.345-7.025-13.827s-3.694-4.512-2.932-4.512c1.254,0-3.211-4.479-11.694-11.731-4.345-3.715-9.667-10.4-10.426-13.107-1.407-5.01-3.126-28.782-2.367-32.735a26.69,26.69,0,0,0-.791-10,15.113,15.113,0,0,1,.759-11.318c3.335-7.85,1.926-11.193-8.463-20.069-9.051-7.733-11.24-11.148-16.757-26.138-1.573-4.274-3.882-8.61-5.131-9.636s-2.271-2.528-2.271-3.34-1.965-4.413-4.366-8c-3.32-4.963-5.452-6.528-8.9-6.528a16.921,16.921,0,0,1-8.746-3.282c-2.319-1.805-5.666-3.282-7.438-3.282-4.485,0-12.963-2.813-23.111-7.667-4.739-2.267-9.288-3.711-10.109-3.209s-1.561,3.267-1.643,6.144c-.136,4.732-2.43,7.921-5.747,7.988-1.971.04-1.458-3.988,1.357-10.656,3.22-7.627,1-10.936-4-5.979-5.314,5.259-8.311,12.205-7.37,17.08.645,3.339.083,4.756-2.229,5.629-1.7.642-7.037,4.343-11.861,8.225s-9.8,7.058-11.054,7.058a3.334,3.334,0,0,0-2.983,2.051c-.384,1.128-1.246-.824-1.916-4.338s-2.283-7.443-3.585-8.732A9.849,9.849,0,0,1,67.5,253.1c0-8.963-2.166-14.212-6.854-16.611-2.722-1.393-4.753-3.776-4.753-5.576,0-1.729-.719-3.583-1.6-4.12-1.893-1.158,3.974-7.41,6.987-7.446a46.165,46.165,0,0,0,8.705-2.3c5.806-1.99,6.694-2.972,7.129-7.878.433-4.883-.211-5.981-5-8.532-3.022-1.611-7.349-2.666-9.616-2.345-5.577.789-12.055-5.1-11.315-10.278.463-3.244,1.384-3.836,5.323-3.419a24.193,24.193,0,0,1,8.906,3.191c3.851,2.5,4.289,2.491,6.2-.094,1.13-1.529,2.9-2.78,3.944-2.78s1.89-1.846,1.89-4.1c0-3.282-.829-4.1-4.145-4.1-2.28,0-4.145-.7-4.145-1.566,0-2.548-8.369-10.066-10.056-9.034-.853.522-1.561-.018-1.574-1.2a28.888,28.888,0,0,0-.973-5.654c-.79-2.914.385-4.161,6.955-7.384,4.348-2.133,9.025-5.8,10.393-8.141s5.731-5.965,9.7-8.047c6.259-3.286,7.734-3.506,11.2-1.673,2.193,1.161,5.261,1.627,6.819,1.036s4.54.032,6.628,1.385,7.019,2.91,10.959,3.459a81.31,81.31,0,0,1,12.967,3.036,34.7,34.7,0,0,0,12.243,1.456,16.838,16.838,0,0,1,10.778,2.271,23.711,23.711,0,0,0,6.825,3.238c1.368.212,4.13,2.271,6.138,4.577,4.814,5.527,9.04,5.292,14.126-.783,4.6-5.491,12.963-8.611,19.044-7.1,3.533.878,3.857.526,3.136-3.406-.546-2.982.017-4.7,1.757-5.357,2.948-1.12,5.2,1.653,6.63,8.155,1.212,5.523,2.974,6.788,6.63,4.763,2.733-1.514,10.317.587,17.982,4.982a33.454,33.454,0,0,0,9.12,2.852c4.428.726,5.932,1.842,6.345,4.709.334,2.32,2.239,4.357,4.974,5.322a69.645,69.645,0,0,1,8.834,4.014c6.665,3.71,9.051,3.048,14.883-4.133,4.92-6.058,5.819-6.5,11.27-5.529,3.258.58,6.821,1.757,7.917,2.617a6.306,6.306,0,0,0,5.119.581c1.916-.6,5.482.6,9.211,3.1,5.9,3.963,6.145,3.992,8.063.953,1.428-2.263,3.2-2.892,6.376-2.263,5.683,1.125,11.52-5.73,11.52-13.528,0-4.287-1.229-6.366-5.8-9.819-6-4.53-7.781-11.223-3.984-14.981,3.222-3.188,10.934,2.552,11.1,8.26.077,2.679.825,5.312,1.662,5.852s2.418,3.7,3.515,7.032c1.345,4.084,3.13,6.218,5.49,6.564,2.266.332,4.15,2.441,5.353,5.993,2.943,8.69,6.955,9.834,12.69,3.62,2.64-2.861,4.8-6.51,4.8-8.109,0-3.969,1.251-4.893,5.231-3.863,2.709.7,3.195,1.794,2.446,5.5-.514,2.544-.224,5.061.646,5.593,1.7,1.039,1.345,6.551-.541,8.417-.631.625-1.148,2.859-1.148,4.966,0,3.095-.885,3.828-4.625,3.828-2.543,0-7.58,1.5-11.192,3.337s-8.067,2.974-9.9,2.53c-4.243-1.029-8.881,1.605-6.6,3.751a11.193,11.193,0,0,0,4.823,2.119c1.748.313,3.465,1.42,3.815,2.459.7,2.091-8.365,7.135-12.828,7.135-8.118,0-15.6,12.166-17.393,28.28-.576,5.175-1.741,9.834-2.589,10.352-1.962,1.2-1.944,5.784.034,8.878,1.294,2.024,2.152,2.053,5.666.192,6.25-3.31,9.339-1.285,9.339,6.122,0,7.363,1.269,9.251,4.456,6.633,3.514-2.886,9.977.841,12.718,7.335,2.044,4.841,3.295,5.679,9.783,6.559q17.2,2.333,15.326,8.416c-.576,1.858-1.371,4.486-1.766,5.84-.423,1.451,1.831,4.358,5.489,7.081l6.207,4.62,3.739-4.3c2.667-3.068,3.739-6.392,3.739-11.594,0-4.011.066-7.477.147-7.7,2.165-6.047,2.378-15.892.481-22.132-1.791-5.89-1.91-9.877-.543-18.337,2.962-18.343,2.992-18.424,6.174-16.856,1.574.775,7.151,2.322,12.4,3.436,5.866,1.246,9.534,2.875,9.534,4.233a3.034,3.034,0,0,0,1.765,2.789c.971.32,2.186,3.69,2.7,7.489.818,6.033,1.855,7.44,8.207,11.123,7.994,4.636,10.541,4.227,10.541-1.692,0-5.347,2.736-6.613,3.95-1.828.543,2.141,3.98,8.768,7.638,14.727s6.651,11.27,6.651,11.8c0,1.526,3.83,4.61,9.179,7.391,4.356,2.265,4.906,3.39,4.833,9.9-.114,10.288-6.9,17.9-15.967,17.9-3.509,0-7.75-.846-9.424-1.881-6.3-3.895-20.125,3.743-20.125,11.123,0,2.448.7,3.651,1.752,3.008.964-.589,3.42-.658,5.458-.151,2.68.666,3.687,2.108,3.637,5.207-.057,3.528,1.067,4.677,6.356,6.5,9.452,3.249,10.3,4.7,6.1,10.532-2.352,3.268-5.055,5.049-7.665,5.049-4.669,0-4.983-1.208-1.569-6.032,2.192-3.1,2.178-3.589-.126-4.464-4.444-1.687-16.885,6.758-29.945,20.329-4.222,4.387-8.44,7.7-11.07,8.7-1.631.619-2.819,2.936-2.881,5.618-.3,12.961-1.155,15.064-8.983,22.114-10.726,9.66-12.971,14.446-11.726,24.993.662,5.608.235,10.376-1.241,13.85-2.229,5.246-2.287,5.268-5.984,2.306-3.361-2.693-3.522-3.448-1.62-7.58,1.286-2.794,1.5-5.025.549-5.7a16.513,16.513,0,0,1-3.39-4.395c-2.619-4.708-13.17-5.356-17.846-1.1-2.967,2.7-5.475,3.145-15.468,2.727-13.95-.583-21.136,2.324-25.692,10.393-5.217,9.242-1.71,30.816,5.3,32.631,1.813.469,3.3,1.471,3.3,2.225,0,1.672,9.529,4.418,14.1,4.062,1.822-.142,6.44-2.317,10.263-4.834s7.741-4.093,8.705-3.5c2.559,1.565,2.143,6.721-.733,9.083-5.939,4.877-1.594,11.486,7.551,11.486,8.759,0,15.356,6.356,14.34,13.815-.414,3.041-1.2,6.247-1.749,7.124-1.755,2.81,4.962,7.364,8.993,6.1,2.02-.634,6.432-.252,9.8.849,5.153,1.683,6.952,1.583,11.271-.627a23.669,23.669,0,0,0,8.082-7.561c1.619-2.712,3.524-4.931,4.234-4.931,1.858,0,.693,5.808-1.748,8.719-1.417,1.689-1.519,2.816-.322,3.548,2.378,1.454,8.76-.7,10.982-3.707,1.423-1.925,3.551-2.175,9.955-1.168a88.033,88.033,0,0,0,14.838.944c7.6-.382,14.2,3.747,18.192,11.377,1.877,3.592,4.614,5.276,11.988,7.376,11.1,3.161,17.85,8.716,22.214,18.288,2.089,4.582,4.651,7.348,7.816,8.44,2.59.893,7.4,3.96,10.682,6.814,5.7,4.954,6.271,5.1,12.535,3.244,9.278-2.751,17.2-.845,22.423,5.394,2.4,2.862,4.356,5.937,4.356,6.833s1.623,3.339,3.607,5.428c3.462,3.647,3.507,4.113,1.116,11.592-2.09,6.537-3.1,7.725-6.247,7.375-2.576-.287-4.029.615-4.625,2.872-.478,1.809-1.653,3.289-2.61,3.289s-1.273.463-.7,1.028-.19,3.335-1.692,6.153-3.277,9.542-3.944,14.94c-1.345,10.89-6.5,17.26-13.973,17.26-2.483,0-5.081,1.611-6.811,4.224-1.8,2.719-3.854,3.95-5.765,3.455-6.151-1.592-7.717,1.582-12.149,24.622-.978,5.087-4.057,10.362-6.046,10.362-.93,0-3.242,3.692-5.137,8.2s-4.435,8.2-5.644,8.2-4.113-2.031-6.453-4.513c-3.6-3.814-4.507-4.132-5.888-2.051-.9,1.354-1.271,5.046-.827,8.2a20.409,20.409,0,0,1-2.071,11.486c-2.329,4.648-3.823,5.743-7.836,5.743-5.25,0-7.821,1.607-9.469,5.92-.555,1.451-3.4,3.111-6.314,3.688-5.259,1.041-5.3,1.116-4.171,8.54,1.311,8.653-.207,11.251-8.607,14.724-5.182,2.143-5.542,2.752-4.557,7.7.588,2.955,1.465,7.394,1.949,9.864.592,3.021-.609,7.307-3.667,13.1a101.729,101.729,0,0,0-6.473,15.191c-2.32,7.93-6.945,9.717-8.57,3.312Zm-76.12-447.134c.308,0,1.8-3.692,3.314-8.2s3.291-8.2,3.947-8.2c2.448,0,5.173,4.063,5.173,7.712,0,2.076.8,3.774,1.767,3.774,3.308,0,8.182-3.39,8.182-5.69,0-1.261,1.492-2.762,3.316-3.335,5.911-1.857,3.533-5.463-6.559-9.945-7.168-3.183-10.273-5.568-11.328-8.7-1.172-3.479-2.55-4.348-7.121-4.487a51.714,51.714,0,0,1-9.918-1.339c-5.718-1.568-13.5,4.194-10.173,7.535,1.187,1.192,4.918,2.168,8.291,2.168,5.04,0,6.224.638,6.647,3.581.283,1.97-.649,5.809-2.073,8.533s-2.588,6.514-2.588,8.423c0,5.351,3.226,10.2,6.066,9.126A17.378,17.378,0,0,1,345.235,357.207ZM308.867,299.99c-.606-4.179-1.253-9.592-1.437-12.03-.513-6.792-3.248-8.638-8.856-5.979-5.766,2.735-7.006,7.195-2.336,8.4,3.276.848,4.325,4.232,3.63,11.715-.161,1.73,1.36,4.886,3.38,7.013,3.274,3.449,3.837,3.576,5.2,1.171.839-1.483,1.029-6.116.423-10.295Zm-51.485-52.9c12.261-10.01,13.164-12.009,6.188-13.689a15.157,15.157,0,0,1-7.234-4.516c-4.233-5.41-6.993-2.236-5.826,6.7,1.062,8.135.218,10.5-4.35,12.165-3.784,1.382-3.761,6.085.03,6.085,1.613,0,6.649-3.035,11.192-6.744ZM230.518,206a16.329,16.329,0,0,0,4.865-3.692c.857-1.244,1.737-1.045,2.833.642,1.826,2.813,4.166,1.163,7.35-5.181a8.646,8.646,0,0,1,5.611-4.354c2.258-.321,3.689-1.675,3.689-3.491,0-3.824-2.749-6-9.895-7.824-4.719-1.206-7.1-.766-13.265,2.456-13.476,7.038-18.448,14.1-9.43,13.4,6.1-.475,6.52-.035,3.849,4-3.674,5.549-1.8,7.272,4.392,4.045Zm1216.164,593.89c-4.229-5.157-1.618-9.668,12.374-21.381,5.307-4.443,9.122-3.726,8.739,1.641-.48,6.714-.74,7.621-1.868,6.5-.564-.559-2.11.057-3.434,1.367a9.376,9.376,0,0,1-5.7,2.383c-1.812,0-2.856.7-2.318,1.565,1.417,2.269-.735,9.552-3.087,10.445-1.1.419-3.219-.718-4.7-2.526Zm14.456-14.388c.581-.93-.085-1.205-1.56-.645-2.873,1.091-3.4,2.267-1.013,2.267A3.533,3.533,0,0,0,1461.138,785.5Zm-113.806-7.233c-2.838-1.415-3.751-3.054-3.332-5.982a25.324,25.324,0,0,1,.829-4.287c.535-.538,5.4-.947,9.058-.761,3.37.171,3.769.917,3.316,6.2C1356.631,780.114,1353.807,781.5,1347.332,778.268Zm129.912-16.784c-1.173-1.241-1.638-2.257-1.034-2.257s.224-1.042-.844-2.315c-1.391-1.658-1.426-2.63-.126-3.425,1-.611,1.475-3.245,1.06-5.854-.752-4.722-.737-4.73,3.188-1.907,2.168,1.56,3.966,4.059,3.995,5.554.036,1.9,1.048,2.46,3.368,1.86,4.4-1.138,4.221,1.911-.372,6.456-4.483,4.436-6.451,4.839-9.235,1.889Zm-132.993-13.046c-4.275-1.467-6.4-1.511-8.066-.167-2.325,1.875-4.637-.16-12.5-11.007-1.737-2.4-4.94-4.8-7.118-5.339-2.328-.578-3.851-2.086-3.7-3.659,1.034-10.566-2.715-13.09-10.069-6.779-4.916,4.219-6.387,4.133-8.159-.478-2.458-6.4-6.563-8.5-16.52-8.444-6.609.034-12.313,1.4-19.648,4.7-8.564,3.852-11.831,4.5-19.068,3.776a54.36,54.36,0,0,0-15.727.935c-3.846.994-7.494,1.312-8.105.707s-1.329-4.121-1.595-7.813-1.341-7.736-2.389-8.986-2.284-4.711-2.746-7.691a19.824,19.824,0,0,0-3.79-8.7c-2.251-2.5-2.624-4.424-1.575-8.107.864-3.031.711-5.616-.41-6.953a5.183,5.183,0,0,1-.507-5.021,9.794,9.794,0,0,0,1.027-4.087c-.4-1.891,8.879-6.085,15.8-7.143,15.522-2.374,17.7-3.239,20.434-8.123,1.5-2.679,4.045-5.123,5.654-5.432s5.01-2.868,7.555-5.687c3.854-4.268,5.047-4.782,7.133-3.069,5.317,4.367,9.169,3.5,17.275-3.9,4.374-3.992,9.258-7.266,10.854-7.275s2.9-.69,2.9-1.513c0-1.612,1.969-1.489,7.945.5,3.341,1.11,3.741,2.187,3.316,8.925-.481,7.62-.443,7.681,6.978,11.13,12.524,5.82,16.433,6.233,18.069,1.906.776-2.053.782-4.132.012-4.619-1.838-1.165.638-10.211,3.01-10.993,1.013-.334,2.322.891,2.909,2.722s3.449,4.975,6.359,6.985c6.863,4.742,7.722,6.085,7.753,12.118.019,3.817,1.787,6.636,7.365,11.744,4.037,3.7,7.682,6.383,8.1,5.969,1.07-1.059,11.091,11.231,11.091,13.6a2.937,2.937,0,0,0,1.917,2.583c2.789.92,4.268,14.162,2.434,21.793A45,45,0,0,1,1373,719.816c-2.131,3.143-3.874,7.405-3.874,9.472,0,3.721-11.381,17.47-16.477,19.9-1.425.681-5.2.341-8.394-.754ZM800.228,708.99c-3.122-3.723-8.156-17.62-10.925-30.166-.5-2.256-1.824-4.841-2.946-5.743-3.431-2.76-7.019-11.112-7.984-18.588-.5-3.906-2.049-8.34-3.434-9.853-4.43-4.844-5.029-17.9-1.412-30.737,2.829-10.041,2.977-12.346,1.112-17.229-1.185-3.1-4.118-10.75-6.519-17s-5.567-12.231-7.037-13.295c-2.179-1.577-2.474-3.8-1.6-12.067l1.07-10.133-4.839-.958a19.967,19.967,0,0,1-8.2-4.057c-1.85-1.7-4.06-3.1-4.912-3.1s-1.979-1.108-2.5-2.461c-1.249-3.221-9.256-3.164-13.964.1-3.932,2.726-11.461,2.279-21.418-1.27-4.035-1.438-6.339-1.426-9.612.049-8.361,3.77-13.667,2.454-21.546-5.343-4.049-4.007-7.8-8.991-8.326-11.076s-3.517-5.444-6.637-7.465c-8.257-5.347-10.673-10.965-9-20.94a139.181,139.181,0,0,0,1.471-17.721c.114-11.018,2.921-17.391,11.708-26.583,3.451-3.61,6.778-8.225,7.393-10.256s1.8-3.692,2.623-3.692c3.233,0,11.941-11.115,15.426-19.691,3.95-9.72,3.477-9.522,17.378-7.263,5.729.931,8.433.464,13.438-2.32,5.119-2.847,9.538-3.566,24.136-3.925,16.906-.416,17.94-.251,19.179,3.047.821,2.184.43,5.165-1.047,7.982-3.586,6.84-3.071,7.4,6.785,7.4,5.028,0,10.438.631,12.021,1.4a112.717,112.717,0,0,0,10.7,3.88c7.322,2.319,8,2.282,10.62-.582,3.1-3.39,5.861-3.812,10.182-1.556,7.979,4.165,15.426,6.649,22.061,7.36a115.581,115.581,0,0,1,11.92,1.9,17.45,17.45,0,0,0,9.143-.761c7.692-3.153,14.735-20.016,10.716-25.658-2.082-2.922-14.094-5.7-22.774-5.267-8.091.4-8.3.3-8.852-4.509-.309-2.707-1.254-5.752-2.1-6.766-2.973-3.559.359-6.493,12.647-11.136,11.556-4.366,12.994-4.552,21.105-2.73,15.7,3.527,17.736,3.78,21.949,2.734,6.446-1.6,5.141-6.632-4.124-15.9-4.56-4.56-8.291-9.634-8.291-11.276,0-2.961-3.078-4.976-7.6-4.976-1.519,0-2.351,1.782-2.351,5.038,0,4.285-.557,4.959-3.731,4.512a4.691,4.691,0,0,1-4.274-4.317c-.3-2.086-1.61-4.2-2.915-4.693-3.589-1.363-10.083,3.618-11.379,8.728a13.412,13.412,0,0,1-4.349,6.751,8.709,8.709,0,0,0-3.2,6.983c0,5.914-5.681,11.457-11.743,11.457-4.711,0-6.5,2.491-6.5,9.063,0,5.776-2.447,6.218-8.146,1.472-3.372-2.808-5.987-7.24-7.689-13.033-2.309-7.861-3.358-9.151-10.039-12.352-4.1-1.966-8.627-5.336-10.053-7.489-3.278-4.952-8.843-5.252-8.843-.476,0,5.484,5.968,12.3,14.068,16.068,8.009,3.725,8.9,5.19,5.053,8.345-1.339,1.1-2.37,2.482-2.291,3.072.836,6.259-4.358,7.172-5.913,1.04a25.852,25.852,0,0,0-4.74-8.456c-4.334-5.074-19.728-20.228-20.549-20.228a60.461,60.461,0,0,0-6.752,3.282c-3.4,1.805-8.581,3.282-11.507,3.282-5.354,0-10.482,4.651-10.482,9.507,0,2.19-4.03,7.073-5.744,6.96-.489-.032-1.619-.059-2.513-.059s-3.232,3.138-5.2,6.974c-3.738,7.3-6.216,9.768-8.434,8.412-.726-.444-3.431.428-6.013,1.937-4.346,2.541-5.079,2.546-9.9.078-6.347-3.248-8.46-6.861-8.329-14.24a61.259,61.259,0,0,0-.664-9.824,17.914,17.914,0,0,1,.658-8.007c1.285-3.438,2.1-3.693,8.443-2.654,18.359,3.005,17.492,3.244,18.765-5.159,1.322-8.726-1.838-15.74-7.48-16.6-1.889-.288-3.434-1.468-3.434-2.621,0-3.239,5.858-9.161,9.063-9.161,6.113,0,14.253-5.653,30.467-21.158,15.987-15.287,16.846-16.453,16.846-22.858,0-9.573,4.252-7.414,5.629,2.858l1.055,7.87,10.887,1.006c8.455.781,11.787.422,14.917-1.607a12.105,12.105,0,0,1,8.921-1.645c5.579,1.1,6.719-.075,9.263-9.587,1.716-6.415,1.927-6.567,9.12-6.567s7.375-.125,7.913-5.737c.706-7.36,2.52-9.4,10.444-11.751,9.384-2.782,11.417-5.854,6.369-9.623-5.616-4.192-11.334-4.948-18.624-2.462-7.605,2.593-8.267,1.8-8.961-10.809-.434-7.872.292-10.926,4.46-18.767,5.974-11.238,7.111-19.211,2.863-20.08-4.44-.909-12.63,9.148-10.381,12.749.976,1.562-11.68,14.792-14.151,14.792-1.662,0-4.947,9.8-4.4,13.138a21.3,21.3,0,0,0,3.268,6.518c3.093,4.37,3.837,12.372,1.294,13.928-.863.528-4.02,5.371-7.015,10.763s-6.277,9.8-7.294,9.8c-2.741,0-7.336-5.576-7.336-8.9,0-4.005-5.245-12.431-7.737-12.431a4.651,4.651,0,0,0-3.373,2.051,21.842,21.842,0,0,1-4.149,4.239c-2.451,1.9-3.488,1.514-7.876-2.928-2.78-2.813-5.053-6.788-5.053-8.832a9.086,9.086,0,0,0-1.924-5.621c-1.058-1.047-1.786-5.74-1.618-10.432.328-9.18,1.354-10.544,12.248-16.287,6.177-3.257,12.825-11.764,15.333-19.62a13.975,13.975,0,0,1,4.388-6.246,7.451,7.451,0,0,0,3.078-5.248c0-1.707,3.576-7.388,7.947-12.624S794.372,160,795.966,156.63c3.159-6.685,8.182-10.269,12.234-8.73,1.419.539,6.4-1.119,11.063-3.685a34.06,34.06,0,0,1,18.017-4.829c10.794-.187,12.349,2.15,5.929,8.912l-3.606,3.8h5.972c4.4,0,6.833,1.083,9.233,4.1a10.057,10.057,0,0,0,8.695,4.1c2.989,0,6.849,1.267,8.579,2.816a64.606,64.606,0,0,0,9.025,6.153,16.758,16.758,0,0,1,7.995,9.525c1.929,5.645,1.823,6.39-1.209,8.491-1.828,1.267-4.432,1.882-5.787,1.368a3.251,3.251,0,0,0-3.774,1.161c-1.824,2.921-10.768-1.079-13.433-6.006-1.714-3.17-6.612-5.4-12.282-5.595-.912-.031-2.077,1.648-2.589,3.732-.714,2.905.253,4.665,4.145,7.547,5.583,4.134,7.271,7.215,7.447,13.6.126,4.569,6.038,10.824,10.065,10.649,1.368-.059,2.731-1.809,3.029-3.888a7.358,7.358,0,0,1,4.908-5.423,27.44,27.44,0,0,0,8.578-6.286c3.8-4.185,8.808-5.8,20.378-6.579,2.415-.162,1.2-4.535-2.073-7.467-3.984-3.568-4.253-7.864-.711-11.369,3.847-3.806,5.686-3.153,5.686,2.016,0,9.31,8.913,11.756,13.535,3.715,3.754-6.529,24.6-16.447,24.6-11.7,0,3.6,6.982,3.64,10.827.065,2.783-2.587,5.083-3.347,7.967-2.63,3.141.78,5.22-.173,9.233-4.235,4.973-5.033,5.453-5.169,12.064-3.423,3.787,1,7.807,1.468,8.935,1.04,2.625-1,3.983-6.082,4.012-15.017.013-3.895.771-8.465,1.685-10.156,1.141-2.11,1.1-3.42-.138-4.175-1.072-.656.268-2.346,3.312-4.178,2.812-1.692,5.112-3.826,5.112-4.742,0-2.629,9.314-1.938,11.665.866,1.608,1.917,1.657,2.992.2,4.43-2.772,2.744-2.339,16,.71,21.754,3.909,7.374,4.209,20.79.669,29.943-2.74,7.084-3.46,7.754-7.87,7.317-7.485-.741-9.934,3.284-6.427,10.562,2.146,4.454,3.475,5.544,5.658,4.641a58.013,58.013,0,0,1,7.827-2.258c6.061-1.313,15.752-14.6,15.752-21.6,0-5.792,3.2-13.019,5.773-13.019,1.239,0,2.033,3.921,2.231,11,.168,6.052,1,11.695,1.858,12.539,2.126,2.1,13.352-3.317,13.352-6.448,0-1.343-1.122-4.136-2.493-6.207s-2.787-6.793-3.148-10.495c-.842-8.654-1.94-10.26-6.746-9.866-5.144.421-12.173-3.375-13.414-7.245-2.783-8.677-3.41-24.43-1.132-28.457,1.474-2.606,1.874-2.432,3.923,1.7,1.255,2.534,3.4,5.1,4.769,5.7,14.629,6.452,15.75,7.577,15.8,15.872.069,10.5,1.364,12.462,6.64,10.083,3.23-1.456,4.091-3.076,4.109-7.732a45.507,45.507,0,0,1,.922-9.2c.631-2.322-1.072-5.488-5.7-10.6-5.223-5.768-6.267-7.9-5.009-10.226.874-1.617,2.123-2.994,2.775-3.061,7.894-.812,12.546-3.805,12.749-8.2.024-.517,1.909-3.656,4.189-6.975,2.639-3.841,5.031-5.7,6.582-5.126,1.34.5,1.982.458,1.426-.092s2.078-4.433,5.854-8.628c14.192-15.77,13.023-15.068,23.64-14.2,8.474.693,10.194,1.457,14.25,6.326,3.328,4,5.552,5.295,7.986,4.665a9.173,9.173,0,0,0,6.581-11.7c-.758-2.393-1.826-6.381-2.375-8.863-.995-4.5-.964-4.512,8.121-4.512,8.431,0,9.2.321,10.2,4.252.926,3.652,1.691,4.089,5.421,3.1,8.157-2.172,15.411-1.5,17.156,1.582a35.063,35.063,0,0,0,4.9,6.136c3,2.973,3.052,3.5.642,7.141a16.046,16.046,0,0,0-2.6,7.153c0,3.782-2.307,6.107-11.491,11.581-3.712,2.212-6.748,4.928-6.748,6.036s-1.082,3.085-2.4,4.393c-1.972,1.951-2.024,2.892-.288,5.241,1.984,2.685,2.52,2.609,8.646-1.218,3.592-2.244,7.526-5.267,8.744-6.718,2-2.384,2.791-2.4,8.208-.16,3.3,1.363,6.395,3.016,6.883,3.672a65.394,65.394,0,0,0,6.279,5.576c4.171,3.39,6.611,4.195,10.778,3.553,2.962-.456,9.993.25,15.624,1.57,10.011,2.347,10.367,2.313,16.079-1.528q9.344-6.283,9.333-2.287c0,.9,1.033,1.641,2.3,1.641,3.762,0,7.419,7.246,7.967,15.791l.514,8,9.28-.529a64.663,64.663,0,0,1,18.4,2.1c8.467,2.436,15.557,2.116,13.846-.625-.4-.647.292-3.135,1.547-5.528a30.994,30.994,0,0,0,2.817-7.919,8.579,8.579,0,0,1,3.377-5.33c2.272-1.409,3.823-.832,7.737,2.879,4.928,4.673,15.86,7.094,17.824,3.948,1.324-2.121,10.543.2,14.2,3.572a14.022,14.022,0,0,1,3.775,6.379c1.011,5.195,2.015,6.3,7.4,8.159,3.9,1.344,6.121,1.048,11.131-1.479,9.792-4.94,14.38-3.714,15.766,4.215.716,4.1,6.92,7.469,15.3,8.315a35.851,35.851,0,0,1,12.116,3.967c3.125,1.824,6.612,3.317,7.751,3.317s4.6,1.846,7.689,4.1c7.085,5.173,14.923,5.566,14.923.749,0-1.844,1.82-5.3,4.044-7.669l4.044-4.316,8.545,4.387c4.7,2.413,9.853,4.387,11.451,4.387s4.326,1.552,6.061,3.45c3.092,3.381,12.282,8.876,12.282,7.344,0-.427,2.148-.036,4.772.869,3.714,1.281,4.983,2.932,5.723,7.445.523,3.189,1.761,6.764,2.75,7.944,1.894,2.258,8.31,1.494,8.31-.989,0-2.407,6.216-1.628,9,1.129,3.832,3.792,3.2,7.528-2.26,13.448l-4.865,5.272-12.486-6.547c-6.868-3.6-13.613-6.547-14.99-6.547s-3.614,2.126-4.972,4.724-3.7,5.192-5.209,5.764c-2.261.859-2.621,2.893-2.058,11.641l.682,10.6-7.952,2.83c-4.373,1.556-7.952,3.342-7.952,3.968s-1.827,1.593-4.06,2.147-5.043,3.034-6.244,5.511c-1.92,3.958-3.12,4.5-9.928,4.5-6.709,0-8.415.743-12.761,5.558-4.443,4.922-5.705,5.447-11.034,4.591-7.887-1.267-12.361,1.473-11.426,7,3.277,19.373,1.019,28.813-8.058,33.676a21.157,21.157,0,0,0-7.789,8.006c-2.81,5.837-6.824,6.807-7.787,1.884-1.5-7.673-.794-19.013,1.348-21.625,1.536-1.874,1.609-2.391.221-1.566-1.14.678-2.073.45-2.073-.505,0-1.92,3.424-6.164,10.363-12.846,2.508-2.415,4.56-5.487,4.56-6.828s2.552-5.053,5.67-8.249,5.917-7.289,6.218-9.094c.457-2.742-.271-3.214-4.427-2.871a18.861,18.861,0,0,1-8.571-1.437c-2.928-1.5-4.47-1.232-8.291,1.463-5.827,4.11-10.464,9.124-12.886,13.932-2.055,4.081-8.617,5.274-10.518,1.912-2.336-4.131-9.138-5.433-13.938-2.67-3.867,2.226-5.357,2.275-11.209.363-5.021-1.64-7.7-1.748-10.463-.423a42.287,42.287,0,0,1-7.9,2.668c-5.83,1.235-21.6,22.024-23.173,30.554-1.268,6.862-.077,9,5.609,10.07,2.057.387,3.981,3.259,5.646,8.429,2.187,6.788,2.228,9.4.311,19.461-1.218,6.39-3.1,12.5-4.187,13.57a35.772,35.772,0,0,0-4.536,6.794c-3.251,6.14-15.919,18.79-18.818,18.79-1.207,0-5.2,1.188-8.863,2.64-5.7,2.257-7.421,4.2-11.866,13.42-4.682,9.707-5,11.319-3.219,16.2,1.74,4.761,1.577,5.845-1.345,8.949l-3.325,3.532-1.072-4.226c-.589-2.324-.581-5.012.019-5.973,1.2-1.918-2.808-6.644-5.635-6.644-1.784,0-2.252-1.513-2.207-7.131.019-2.4-.883-2.849-4.333-2.167-10.478,2.071-10.976,1.994-11.518-1.778-.317-2.208-1.687-3.692-3.406-3.692-3.189,0-13.475,9.723-13.475,12.737,0,2.572,5.453,5.313,10.571,5.313,6.359,0,6.745,2.807,1.149,8.345-4.8,4.751-5.035,5.574-4.26,14.963.582,7.055,1.748,10.732,4.021,12.683,3.106,2.666,3.114,2.94.25,9.222-4.535,9.949-17.375,23.145-23.738,24.394a64.053,64.053,0,0,0-12.005,4.15c-3.631,1.7-7.333,2.641-8.228,2.094-1.822-1.114-11.811-.739-16.261.611-4.8,1.457-3.359,17.781,1.945,21.991,2.87,2.278,6.733,10.178,7.062,14.439.473,6.141-4.109,13.1-9.5,14.445-3.464.86-5.609-.34-12.412-6.948-4.524-4.393-8.226-8.96-8.228-10.148,0-1.385-1.626-1.974-4.524-1.641-4.895.562-9.606,7.332-7.169,10.3.77.938,2.349,4.87,3.51,8.739s3.738,8.772,5.727,10.9c5.485,5.856,11.269,15.736,9.968,17.024-.635.629-3.316-1.441-5.957-4.6s-6.2-7.219-7.906-9.024c-6.024-6.367-7.292-10.837-9.564-33.706-1.279-12.874-4.553-18.675-9.162-16.234-3.377,1.788-6.429.83-6.429-2.019,0-.945-1.794-3.827-3.987-6.406s-4.284-5.573-4.649-6.653-5.472-2.544-11.351-3.252c-10.445-1.258-10.8-1.175-15.407,3.623a69.908,69.908,0,0,1-11.121,8.911c-6.422,4.012-10.089,8.814-11.038,14.455a19.642,19.642,0,0,1-2.983,6.518c-1.361,1.923-2.474,4.488-2.474,5.7,0,3.474-11.264,14.5-12.9,12.631-.779-.891-2.409-5.681-3.621-10.645s-3.96-11.6-6.106-14.739-3.9-7.758-3.9-10.255-.731-4.542-1.627-4.542-2.1-1.852-2.671-4.117a7.054,7.054,0,0,0-5.006-5.1c-2.211-.55-3.962-2.2-3.962-3.741,0-3.052-12.569-14.14-18.563-16.376a75.8,75.8,0,0,0-12.845-2.5c-12.2-1.456-16.426-2.552-23.659-6.137-3.384-1.677-8.1-3.048-10.472-3.048-6.831,0-10.712-2.958-14.079-10.73-3.178-7.337-4.961-8.4-15.724-9.344-5.79-.51-5.913,1.825-.664,12.587,1.733,3.554,3.151,7.8,3.151,9.435,0,2.21,1.277,2.974,4.974,2.974,4.162,0,4.974.651,4.974,3.985,0,8.054,9.749,12.361,13.265,5.86,2.025-3.745,8.291-4.467,8.291-.954,0,1.28,2.612,3.925,5.8,5.877s5.783,4.412,5.759,5.467c-.08,3.414-11.549,14.277-18.7,17.71-3.827,1.838-8.077,3.906-9.445,4.6a78.381,78.381,0,0,1-11.607,3.268,81.258,81.258,0,0,0-12.581,3.67,17.933,17.933,0,0,1-8.232,1.113c-3.914-.447-4.972-1.531-5.9-6.041-.62-3.023-3.751-8.191-6.958-11.486a50.994,50.994,0,0,1-8.427-11.734c-1.428-3.159-6.574-13.127-11.436-22.152-7.477-13.879-9.461-16.409-12.867-16.409-5.682,0-6.052,4.76-.893,11.455a19.114,19.114,0,0,1,4.282,11.466,20.94,20.94,0,0,0,2.566,9.786,26.076,26.076,0,0,1,3.334,8.064c.422,2.3,3,6.606,5.725,9.56,2.94,3.185,4.957,7.174,4.957,9.8,0,3.608,1.077,4.782,5.8,6.325,3.192,1.043,5.864,2.761,5.938,3.819s.26,4.877.415,8.487c.272,6.37.439,6.548,5.669,6.048,2.964-.283,5.389.245,5.389,1.173,0,3.585,6.123,5.085,11.013,2.7a57.269,57.269,0,0,1,9.555-3.486c4.731-1.153,4.8-1.076,3.706,4.32-.611,3.021-1.737,5.9-2.5,6.395s-2.433,2.887-3.706,5.313c-2.558,4.877-15.788,20.186-29.352,33.966-11.988,12.178-13.956,17.187-11.153,28.391,1.2,4.792,3.94,13.39,6.092,19.106l3.912,10.392-6.632,5.582c-3.648,3.07-7.938,5.593-9.534,5.607s-2.9.763-2.9,1.665-1.039,1.641-2.31,1.641c-3.34,0-4.39,3.977-3.241,12.275.973,7.023.8,7.4-5.009,10.788-3.309,1.932-5.62,4.148-5.136,4.923s-2.09,7.257-5.72,14.4c-9.208,18.123-24.6,29.428-36.832,27.047-2.4-.467-4.866-.036-5.487.958-1.628,2.606-5.153,2.22-7.725-.846ZM946.267,396.656c2.84-5.251.178-21.077-4.359-25.922-2.143-2.288-3.9-5.486-3.9-7.106s-.746-3.4-1.658-3.959c-4.154-2.541-1.327-4.469,5.067-3.458l6.725,1.064-.507-7.7c-.441-6.7-1.187-8.072-5.73-10.575-4.8-2.644-6.086-2.683-15.846-.48-8.625,1.947-11.151,3.282-13.431,7.1-3.684,6.172-3.545,10.238.508,14.864,1.824,2.081,3.316,5.122,3.316,6.758s2.187,5.439,4.86,8.452c4.169,4.7,4.732,6.425,3.957,12.14-.77,5.678-.331,7.059,2.97,9.347,5.545,3.844,15.82,3.541,18.022-.531Zm31.785-34.116c3.523-6.072,5.077-16.889,2.814-19.587-.994-1.185-3.965-2.155-6.6-2.155-3.631,0-5.594,1.3-8.081,5.333-4.191,6.8-4.134,8.837.433,15.476,4.55,6.614,7.979,6.894,11.437.933ZM903.191,664.818c0-1.385-1.172-4.29-2.6-6.454-2.059-3.11-2.208-4.669-.712-7.436a19.615,19.615,0,0,0,1.608-8.725c-.468-8.553-.254-8.86,7.512-10.8,6.092-1.518,7.462-2.541,7.462-5.573,0-6.109,4.676-11.266,9.694-10.691,3.89.446,4.348,1.141,3.957,6-.244,3.022-2.453,9.667-4.91,14.768s-4.641,10.382-4.854,11.736c-1.712,10.9-4.508,16.3-9.3,17.954C904.342,667.913,903.191,667.8,903.191,664.818Zm446.988-55.01c-1.756-1.751-4.367-3.253-5.8-3.336s-5.969-.352-10.073-.6c-12.616-.751-20.315-3.864-30.645-12.394-8.868-7.323-12.118-9.01-16.167-8.394-.668.1-1.682-1.657-2.252-3.908s-1.7-4.093-2.516-4.093-1.479-1.108-1.479-2.461c0-4.117,7.067-2.8,10.976,2.051,3.413,4.231,3.981,4.385,9.113,2.475,4.928-1.834,6.058-1.645,11.346,1.9a39,39,0,0,0,13.1,5.083c6.912,1.1,10.725,3.635,14.333,9.545.912,1.494,3.524,2.971,5.8,3.282,2.614.357,5.006,2.332,6.475,5.345,1.282,2.628,2.96,5.024,3.731,5.325a2.379,2.379,0,0,1,1.4,2.051c0,2.511-3.953,1.5-7.337-1.875Zm-100.441.046c0-.875,1.119-1.59,2.487-1.59,3.185,0,3.185,1.025,0,2.234-1.368.519-2.487.229-2.487-.645Zm-66.18-7.168c-8.478-2.56-11.394-4.052-9.4-4.81,5.137-1.951,16.063-1.169,21.887,1.565,4.522,2.124,5.288,3.122,3.778,4.923C1197.526,607.107,1198.545,607.212,1183.558,602.687Zm45.454-10.831a3.23,3.23,0,0,1-.108-3.11c.5-.808-.2-1.892-1.56-2.41-3.239-1.229-3.23-7.608.01-7.608,1.528,0,2.487-1.537,2.487-3.985,0-3.886,3.8-9.142,6.615-9.142,3.068,0,6.581,2.064,5.758,3.382-.48.769-1.962.984-3.293.478-3.543-1.345-4.878,3.815-1.78,6.881,3.855,3.815,3.449,11.759-.668,13.052-1.824.573-3.316,1.73-3.316,2.572,0,2.035-2.853,1.959-4.145-.111Zm-70.412-7.315a7.615,7.615,0,0,0-4.821-2.583c-3.968-.077-7.85-3.5-9.253-8.159-.679-2.253-5.078-7.527-9.776-11.721s-8.038-8.138-7.423-8.764c1.159-1.18,21.386,9.195,26.87,13.782,4.146,3.468,9.841,16.7,7.981,18.536-.835.826-2.36.361-3.578-1.091Zm36.006-7c-8.123-2.357-8.579-3.13-6.861-11.631.787-3.895,2.445-5.589,7.378-7.543,3.5-1.386,7.081-3.833,7.958-5.437s3.855-4.226,6.618-5.825c4.886-2.828,5.112-2.813,8.262.533,4.784,5.081,3.511,19.415-2.406,27.092-3.454,4.482-4.865,5.292-6.655,3.821a3.257,3.257,0,0,0-4.344-.3c-1.349,1.022-4.822.773-9.949-.715Zm66.739-10.3a1.658,1.658,0,1,1,1.658,1.641A1.654,1.654,0,0,1,1261.345,567.242Zm-13.265-26.167c-5.024-1.28-5.5-5.64-.684-6.32,3.916-.554,8.676,4,6.334,6.054-.828.728-3.37.848-5.65.267ZM1054.1,534.014a9.83,9.83,0,0,1,1.451-4.277c1.822-2.845,4.221.456,2.868,3.946-1.131,2.916-4.354,3.164-4.319.332Zm178.9-27.9c-1.413-3.817-1.213-11.062.332-12.007,1.26-.771,1.556-.522.807.677-.651,1.042-.513,1.894.307,1.894,1.278,0,5.338,6.923,5.338,9.1C1239.789,506.545,1233.281,506.864,1233,506.119ZM534.538,487.787a8.036,8.036,0,0,1-.066-5.008c.818-2.109,1.267-2.094,3.5.117,2.283,2.259,2.29,2.806.066,5.008S535.432,490.092,534.538,487.787Zm648.047-2.589a4.4,4.4,0,0,1,3.414-1.641c1.314,0,2.389.738,2.389,1.641s-1.536,1.641-3.414,1.641S1182.021,486.1,1182.584,485.2ZM444.72,475.352c-.564-.9.138-1.641,1.56-1.641s2.585.738,2.585,1.641a1.607,1.607,0,0,1-1.56,1.641A3.56,3.56,0,0,1,444.72,475.352Zm-25.7-3c0-2.438,7.986-5.667,11.08-4.48,2.874,1.1,2.865,1.264-.205,3.5C426.415,473.9,419.019,474.567,419.019,472.347Zm812.48-2.739c0-1.354.746-2.461,1.658-2.461s1.658,1.108,1.658,2.461-.746,2.461-1.658,2.461S1231.5,470.962,1231.5,469.609Zm-832.377-4.115c0-1.975-1.771-3.124-5.82-3.774-3.2-.514-7.062-2.163-8.579-3.665-1.93-1.91-4.415-2.464-8.274-1.845-3.033.487-5.515.194-5.515-.652a1.6,1.6,0,0,1,1.244-1.663,45.666,45.666,0,0,0,4.56-.982c8.866-2.291,15.336-2.352,17.558-.165,1.287,1.267,6.257,3.694,11.045,5.394s8.705,3.928,8.705,4.952-3.358,2.621-7.462,3.55C399.957,468.144,399.122,468.015,399.122,465.493Zm900.925-50.124a4.447,4.447,0,0,0-3.961-2.372c-3.728,0-5.11-1.924-3.376-4.7,1.177-1.884,4.4-3.036,9.448-3.379,1.016-.069,5.636-3.816,10.267-8.327,4.843-4.718,8.873-7.475,9.488-6.492.587.941.166,2.785-.936,4.1s-1.454,2.389-.781,2.389.018,1.82-1.455,4.045a17.312,17.312,0,0,0-2.7,7.794c-.038,5.575-1.79,7.24-8.766,8.329-4.655.727-6.545.364-7.224-1.387ZM776.573,389.2c-.525-1.354-.7-2.461-.38-2.461a9.163,9.163,0,0,1,2.638,2.461c1.19,1.419,1.351,2.461.38,2.461C778.286,391.666,777.1,390.558,776.573,389.2Zm-22.613-9.845c0-1.354.293-2.461.652-2.461s1.081,1.108,1.606,2.461.232,2.461-.652,2.461S753.96,380.713,753.96,379.359Zm569.91-8.528c-2.186-.562-2.679-1.7-1.867-4.322a38.439,38.439,0,0,1,1.324-3.843,29.17,29.17,0,0,1,5.888.863c5.772,1.168,9.174,5.165,4.4,5.165-1.444,0-2.625.738-2.625,1.641,0,1.69-1.946,1.826-7.116.5Zm6.889-21.278c-1.628-1.943-2.26-8.144-2.26-22.2,0-27.584,1.95-31.336,4.954-9.533.559,4.061,2.107,9.032,3.44,11.047,2.169,3.279,2.081,4.294-.838,9.682-2.347,4.334-2.816,6.841-1.672,8.954,2.113,3.908-.719,5.506-3.623,2.043ZM484.7,328.388c-.547-1.411-1.662-2.158-2.477-1.659s-2.282-.048-3.26-1.214c-1.3-1.551-.913-3.528,1.446-7.366,1.774-2.885,3.974-5.247,4.893-5.247,2.731,0,11.646,10.1,11.646,13.2,0,4.946-10.459,6.9-12.247,2.29ZM701.88,311.262a84.756,84.756,0,0,0,1.4-9.246,11.772,11.772,0,0,1,2.045-5.743c2.013-2.466.1-9.624-2.578-9.624-.869,0-2.07-2.211-2.67-4.913s-2.195-5.524-3.544-6.272c-2.481-1.374-2.507-7.5-.049-11.378,1.782-2.813,8.831-2.59,9.957.316.5,1.3.51,4.85.013,7.885-.71,4.331,0,6.581,3.3,10.46,2.311,2.718,4.7,6.893,5.3,9.277a13.844,13.844,0,0,0,3.424,6.244c2.884,2.369,3.031,8.755.252,10.938-1.14.9-5.056,2.161-8.7,2.813s-7.235,2.04-7.977,3.086-.817-.684-.168-3.843Zm-21.651-11.773c1.132-5.133,7.927-15.06,9.346-13.655.358.354.361,3.658.005,7.342-.526,5.463-1.559,7.166-5.6,9.234l-4.955,2.536,1.2-5.457ZM183.566,287.372c0-1.407.746-2.1,1.658-1.544a3.515,3.515,0,0,1,1.658,2.558,1.609,1.609,0,0,1-1.658,1.544C184.312,289.93,183.566,288.779,183.566,287.372Zm-9.12-15.492c-.564-.9-.235-1.641.731-1.641a1.706,1.706,0,0,1,1.756,1.641c0,.9-.329,1.641-.731,1.641S175.01,272.783,174.447,271.88ZM528.88,237.492c-9.5-2.284-8.875-1.092-19.941-37.811-1.5-4.964-3.313-9.726-4.038-10.584-3.183-3.766-1.3-15.539,3.657-22.8,6.177-9.057,6.2-11.246.2-16.246-5.4-4.5-7.877-10.25-5.136-11.926,1.007-.616,3.28.179,5.052,1.766s3.68,2.432,4.24,1.878c1.88-1.859-1.121-12.647-3.519-12.647-1.281,0-3.041-1.257-3.91-2.794-1.313-2.321-2.016-2.436-4.155-.679-4.088,3.358-6.036.651-6.036-8.391,0-5.684-.935-9.411-2.9-11.559-1.845-2.018-2.94-5.971-3.012-10.875-.062-4.237-.69-8.628-1.4-9.758s-2.148-5.487-3.206-9.683c-1.447-5.74-3.192-8.36-7.044-10.58-5.391-3.106-17.755-4.1-26.668-2.139-4.706,1.034-5.534.629-7.876-3.853a31.452,31.452,0,0,1-2.617-5.91c0-.5,43.93-.9,97.622-.9h97.622l1.3,5.333c2,8.232,1.181,13.222-2.641,16.074-3.857,2.879-4.114,12.573-.313,11.821,3.071-.608,2.514,1.967-1.132,5.233-1.762,1.578-2.8,3.908-2.31,5.177,1.018,2.626,1.248,2.574-16.279,3.673-6.173.387-7.479,4.871-2.018,6.926,3.683,1.386,4.17,2.333,3.333,6.479-.791,3.914-.267,5.22,2.7,6.734,6.833,3.485,11.144,8.539,11.144,13.064,0,5.235-4.048,7.432-7.035,3.818-4.733-5.726-7.96-8.851-9.132-8.841-.684.006-2.559,2.3-4.166,5.091-1.8,3.137-3.819,4.739-5.268,4.189-2.573-.977-6.536,2.665-4.785,4.4.6.594,3.179,1.08,5.731,1.08,2.943,0,5.289,1.2,6.414,3.282,1.162,2.149,3.472,3.282,6.691,3.282,3.7,0,4.916.76,4.916,3.081,0,4.246-2.972,6.306-11.977,8.3a32.243,32.243,0,0,0-14.026,7.46c-3.481,3.164-7.822,5.761-9.646,5.77-2.821.015-9.349,7.3-17.058,19.026-.65.989-3.4,2.835-6.109,4.1-3.4,1.588-5.76,4.535-7.605,9.479-1.473,3.946-4.4,8.464-6.516,10.039-2.587,1.931-3.551,3.949-2.958,6.194,1.207,4.567-5.455,15.906-9.543,16.245a34.926,34.926,0,0,1-8.65-1.021ZM447.428,222.1c-1.671-2-3.85-2.455-8.3-1.751-5.839.924-6.241.651-12.68-8.626-6.293-9.066-7.041-9.6-13.933-9.9-15.431-.676-12.548-14.056,3.352-15.558,5.454-.515,5.637-.763,5.69-7.68.03-3.931-.837-8.355-1.927-9.83-1.779-2.407-2.429-2.205-6.339,1.971-4.027,4.3-4.635,4.471-8.021,2.25-7.457-4.891-3.928-9.439,7.8-10.05,5.389-.281,4.63-3.487-1.33-5.62-3.118-1.116-6.085-3.1-6.594-4.413a2.63,2.63,0,0,0-3.474-1.416c-1.655.629-2.55.025-2.55-1.721,0-2.919-6.173-5.92-9.555-4.646a5.261,5.261,0,0,1-4.48-1.172,7.008,7.008,0,0,0-5.86-.869c-2.556.8-5.533-.555-11.272-5.142A101.775,101.775,0,0,1,358.819,130c-.735-.933-.954-6.865-.487-13.183.734-9.92,1.466-12.014,5.372-15.358,4.34-3.716,4.612-3.75,6.753-.852a9.869,9.869,0,0,1,1.223,7.564c-1.358,6.118,3,6.135,8.327.032l3.939-4.512,1.729,4.1c3.514,8.338,6.181,10.25,13.351,9.573,3.7-.349,6.729-.2,6.729.323s3.785.958,8.41.958c9.92,0,11.948,2.1,10.53,10.887-.909,5.636-.666,6.153,2.884,6.155,5.676,0,16.312,11.414,16.312,17.5,0,2.647-.781,5.586-1.735,6.53-1.208,1.2.476,2.553,5.544,4.468,4.014,1.517,8.221,4.494,9.381,6.638s5,5.015,8.55,6.394c4.542,1.766,6.165,3.235,5.491,4.972-.526,1.356-.1,4.047.945,5.98,2.994,5.537-.648,8.536-9.7,7.986-8.8-.536-9.872,1.094-6.793,10.327,1.7,5.1,1.72,6.835.091,8.425s-2.506,1.394-4.2-.87c-2.261-3.029-7.582-3.958-7.582-1.324,0,.851,1.56,2.629,3.467,3.951s3.213,3.694,2.9,5.271c-.523,2.653-.735,2.666-2.832.162Zm-76.051-9.661c-6.363-4.432-6.685-7.068-1.628-13.322l3.773-4.666,7.826,3.762c5.959,2.865,7.825,4.663,7.825,7.538,0,2.735-.954,3.775-3.465,3.775a9.534,9.534,0,0,0-6.218,3.323l-2.753,3.323-5.36-3.733Zm270.66-1.657c-1.824-1.06-6.3-2.329-9.949-2.822-6.49-.876-6.644-1.05-7.153-8.092-.651-8.992.885-10.594,7.851-8.191,4.047,1.4,5.762,1.405,6.618.034.636-1.018,4.473-2.3,8.527-2.847,6.4-.866,7.981-.437,12.015,3.267,5.442,5,4.953,6.381-5.215,14.748-8.015,6.6-8.042,6.6-12.694,3.9ZM925.7,162.139c-.514-.823.181-1.919,1.544-2.437s2.478-.269,2.478.552c0,2.224-2.947,3.606-4.021,1.885Zm-663.788-7.52c-10.777-4.925-11.149-8.088-1.244-10.557,4.9-1.22,7.462-2.749,7.462-4.448,0-2.141-1.791-2.492-10.363-2.027l-10.363.561.559-9.025c.77-12.43,3.309-15.726,13.837-17.961,7.881-1.673,8.956-1.55,11.253,1.287a14.9,14.9,0,0,0,7.1,4.193c2.508.581,4.589,1.966,4.624,3.077s2.46,3.508,5.389,5.327,5.545,4.818,5.814,6.663,2.69,4.642,5.379,6.215c5.661,3.309,7.563,8.809,5.3,15.331-1.269,3.662-2.385,4.435-5.551,3.849-5.885-1.09-19.845-.88-25.518.384-3.568.8-7.435-.016-13.68-2.87Zm58.449,2.4c-1.471-2.355.555-4.931,3.829-4.871,3.512.065,8.926,4.008,7.476,5.443C329.971,159.268,321.5,158.839,320.361,157.018Zm631.662-16.283c-.866-.833-3.8-1.756-6.519-2.051-6.511-.707-9.55-7.873-5.307-12.513a11.368,11.368,0,0,0,2.842-6.2,12.366,12.366,0,0,1,2.335-6.132c1.932-2.521,2.8-2.661,5.634-.908,2.541,1.571,2.974,2.771,1.787,4.965-1,1.843-.936,5.449.168,9.933,3.132,12.718,3.367,14.423,1.993,14.423a5.367,5.367,0,0,1-2.934-1.515Zm537.81-3.615c-2.1-1.828-2.943-2.895-1.881-2.369a1.7,1.7,0,0,0,2.487-.654c.79-2.286,8.018-.1,8.018,2.425,0,3.7-4.7,4.023-8.624.6Zm-1267.41-9.3c-3.82-2.551-6.837-8.83-6.093-12.68.432-2.239,1.358-4.071,2.057-4.071,1.886,0,3.655-6.654,3.351-12.6-.419-8.157,4.967-9.64,22.505-6.2,4.139.812,12.281,8.493,12.281,11.585,0,1.2-3.32,4.609-7.379,7.571s-8.1,7.346-8.979,9.743-2.969,4.728-4.643,5.18c-7.892,2.134-11.5,2.539-13.1,1.47Zm94.9-1.436a6.148,6.148,0,0,1-1.116-3.692c-.005-1.429-2.431-3.973-5.389-5.653l-5.379-3.055,3.731-2.478a8.467,8.467,0,0,0,3.731-6.484c0-3.531.639-3.945,5.389-3.492,4.626.441,5.462,1.211,5.907,5.437.285,2.707,1.73,5.843,3.211,6.969,2.484,1.886,2.478,2.494-.076,7.794-2.587,5.369-7.145,7.489-10.009,4.654Zm17.765-14.9a22.206,22.206,0,0,0-2.328-6.153c-1.693-2.243,1.042-8.879,4.143-10.057a8.431,8.431,0,0,1,5.429.283,34.481,34.481,0,0,0,6.218,1.836,40.748,40.748,0,0,1,5.26,1.294c3.077,1.11.617,7.044-4.19,10.109-2.413,1.538-4.983,3.787-5.713,5C341.531,117.74,336.265,116.361,335.087,111.483Zm62.965-4.044c-3.411-2.4-5.094-4.908-4.951-7.383.267-4.614,1.093-4.658,6.626-.351,2.4,1.871,4.369,2.888,4.369,2.26s1.1-.234,2.452.874c1.821,1.5,2.019,2.815.771,5.124-2.136,3.95-2.971,3.9-9.267-.524Zm923.77-3c-1.466-2.347,2.285-6.492,5.873-6.492,3.1,0,5.607,4.183,4.027,6.712-1.279,2.049-8.586,1.886-9.9-.22Zm-370.545-3.9a4.2,4.2,0,0,1,1.434-3.28c.789-.483,1.841-3.877,2.338-7.543,1.093-8.067,5.22-14.744,9.116-14.75,1.61,0,4.316-2.7,6.181-6.153,3.225-5.977,3.59-6.155,13.017-6.372,7.015-.162,11.011-1.183,14.44-3.692,5.592-4.092,7.5-4.325,8.768-1.068,1.009,2.6-5.149,8.217-11.043,10.068-1.958.615-5.514,3.188-7.9,5.717s-6.506,5.119-9.153,5.755c-4.239,1.018-18.906,14.415-18.906,17.267,0,.593-1.865,2.287-4.145,3.766-3.508,2.275-4.145,2.319-4.145.286ZM363.472,87.35c-2.736-1.2-6.985-2.964-9.443-3.921-3.959-1.542-4.6-2.883-5.615-11.764-1.109-9.7-1.347-10.1-7.425-12.51-7.922-3.137-9.958-7.175-3.581-7.1a15.374,15.374,0,0,1,7.726,2.461,12.606,12.606,0,0,0,6.218,2.409c1.65,0,3.023.923,3.052,2.051.128,4.979,4.714,7.7,15.825,9.375,6.315.954,15.025,2.54,19.357,3.523,7.215,1.637,7.876,2.2,7.876,6.643,0,3.246-.633,4.469-1.91,3.688-1.05-.642-2.855.111-4.009,1.674-1.675,2.267-2.783,2.48-5.479,1.052-2.674-1.416-4.52-1.1-8.841,1.505-6.3,3.8-7.055,3.853-13.752.916Zm-99.445-4.641,1.085-5.725-7.611.849c-7.054.787-7.611.577-7.611-2.866a45.115,45.115,0,0,1,1.921-10.059c2.178-7.194,5.79-8.229,10.551-3.023,2.248,2.458,3.365,2.794,4.3,1.3.952-1.524,2.1-1.272,4.665,1.021,3.354,3,3.435,2.964,5.927-2.937,1.389-3.29,2.815-5.983,3.17-5.983s2.184,2.584,4.067,5.743c2.156,3.616,4.693,5.743,6.848,5.743,4.734,0,5.71,3.685,2.568,9.7-2.881,5.514-5.44,6.476-6.939,2.609-.954-2.46-5.749-3.557-5.378-1.231.951,5.963-.321,7.383-5.821,6.5-3.645-.585-6.893-.024-9.227,1.593-3.531,2.448-3.58,2.384-2.516-3.229Zm1045.656,2.313-5.55-2.914,5.55-5.756c4.564-4.734,6.771-5.768,12.425-5.824,5.721-.056,7.186.607,8.726,3.952,2.453,5.327,1.093,7.056-5.548,7.056-3.573,0-6.3,1.122-7.778,3.2-2.205,3.1-2.445,3.111-7.825.286ZM334.8,83.886c-1.981-1.373-4.222-4.863-4.979-7.754-1.806-6.893-6.971-8.179-6.971-1.736v4.587l-3.562-3.525c-3.25-3.216-3.891-3.312-7.31-1.095-3.565,2.312-3.8,2.192-4.83-2.448a22.9,22.9,0,0,0-4.3-8.546c-4.29-4.9-4.087-7.111.516-5.629a22.192,22.192,0,0,0,14,.024c3.073-.994,4.025-.259,6.133,4.733,1.373,3.251,3.595,5.91,4.94,5.91,4.628,0,12.752,8.275,12.191,12.418-.732,5.407-1.707,5.919-5.833,3.059Zm1013.6-.709c-.564-.9.467-1.641,2.292-1.641s3.777.738,4.341,1.641-.467,1.641-2.291,1.641S1348.96,84.08,1348.4,83.177ZM391.024,59.292c-4.268-3.554-5.585-3.9-8.628-2.293-2.618,1.386-4.657,1.421-7.526.127-8.175-3.686-4.171-5.252,12.212-4.776,13.363.389,16.237.93,16.664,3.142.52,2.689-3.644,7.994-6.274,7.994-.777,0-3.679-1.887-6.449-4.194Zm-157.386.58a7.937,7.937,0,0,1-1.986-4.919c0-2.422,1.392-2.954,7.738-2.954,4.256,0,7.423.185,7.039.41s-2.973,2.439-5.752,4.919c-3.925,3.5-5.5,4.07-7.039,2.543Z" transform="translate(1167.438 2111)" fill="#fff"/>
    <g id="place_black_24dp" transform="translate(1265.366 2274.366)" opacity="0.3">
      <path id="Trazado_1" data-name="Trazado 1" d="M0,0H31.633V31.633H0Z" fill="none"/>
      <path id="Trazado_2" data-name="Trazado 2" d="M14.226,2A9.22,9.22,0,0,0,5,11.226c0,6.92,9.226,17.135,9.226,17.135s9.226-10.215,9.226-17.135A9.22,9.22,0,0,0,14.226,2Zm0,12.522a3.3,3.3,0,1,1,3.3-3.3A3.3,3.3,0,0,1,14.226,14.522Z" transform="translate(1.59 0.636)" fill="#1babe2"/>
    </g>
    <g id="place_black_24dp-2" data-name="place_black_24dp" transform="translate(1457 2461)" opacity="0.3">
      <path id="Trazado_1-2" data-name="Trazado 1" d="M0,0H31.633V31.633H0Z" fill="none"/>
      <path id="Trazado_2-2" data-name="Trazado 2" d="M14.226,2A9.22,9.22,0,0,0,5,11.226c0,6.92,9.226,17.135,9.226,17.135s9.226-10.215,9.226-17.135A9.22,9.22,0,0,0,14.226,2Zm0,12.522a3.3,3.3,0,1,1,3.3-3.3A3.3,3.3,0,0,1,14.226,14.522Z" transform="translate(1.59 0.636)" fill="#1babe2"/>
    </g>
    <g id="place_black_24dp-3" data-name="place_black_24dp" transform="translate(1457 2557)" opacity="0.3">
      <path id="Trazado_1-3" data-name="Trazado 1" d="M0,0H31.633V31.633H0Z" fill="none"/>
      <path id="Trazado_2-3" data-name="Trazado 2" d="M14.226,2A9.22,9.22,0,0,0,5,11.226c0,6.92,9.226,17.135,9.226,17.135s9.226-10.215,9.226-17.135A9.22,9.22,0,0,0,14.226,2Zm0,12.522a3.3,3.3,0,1,1,3.3-3.3A3.3,3.3,0,0,1,14.226,14.522Z" transform="translate(1.59 0.636)" fill="#1babe2"/>
    </g>
    <g id="place_black_24dp-4" data-name="place_black_24dp" transform="translate(1563 2632)" opacity="0.3">
      <path id="Trazado_1-4" data-name="Trazado 1" d="M0,0H31.633V31.633H0Z" fill="none"/>
      <path id="Trazado_2-4" data-name="Trazado 2" d="M14.226,2A9.22,9.22,0,0,0,5,11.226c0,6.92,9.226,17.135,9.226,17.135s9.226-10.215,9.226-17.135A9.22,9.22,0,0,0,14.226,2Zm0,12.522a3.3,3.3,0,1,1,3.3-3.3A3.3,3.3,0,0,1,14.226,14.522Z" transform="translate(1.59 0.636)" fill="#1babe2"/>
    </g>
    <g id="place_black_24dp-5" data-name="place_black_24dp" transform="translate(1588 2772)" opacity="0.3">
      <path id="Trazado_1-5" data-name="Trazado 1" d="M0,0H31.633V31.633H0Z" fill="none"/>
      <path id="Trazado_2-5" data-name="Trazado 2" d="M14.226,2A9.22,9.22,0,0,0,5,11.226c0,6.92,9.226,17.135,9.226,17.135s9.226-10.215,9.226-17.135A9.22,9.22,0,0,0,14.226,2Zm0,12.522a3.3,3.3,0,1,1,3.3-3.3A3.3,3.3,0,0,1,14.226,14.522Z" transform="translate(1.59 0.636)" fill="#1babe2"/>
    </g>
    <g id="place_black_24dp-6" data-name="place_black_24dp" transform="translate(1674 2675)" opacity="0.3">
      <path id="Trazado_1-6" data-name="Trazado 1" d="M0,0H31.633V31.633H0Z" fill="none"/>
      <path id="Trazado_2-6" data-name="Trazado 2" d="M14.226,2A9.22,9.22,0,0,0,5,11.226c0,6.92,9.226,17.135,9.226,17.135s9.226-10.215,9.226-17.135A9.22,9.22,0,0,0,14.226,2Zm0,12.522a3.3,3.3,0,1,1,3.3-3.3A3.3,3.3,0,0,1,14.226,14.522Z" transform="translate(1.59 0.636)" fill="#1babe2"/>
    </g>
    <g id="place_black_24dp-7" data-name="place_black_24dp" transform="translate(1857 2541.183)" opacity="0.3">
      <path id="Trazado_1-7" data-name="Trazado 1" d="M0,0H31.633V31.633H0Z" fill="none"/>
      <path id="Trazado_2-7" data-name="Trazado 2" d="M14.226,2A9.22,9.22,0,0,0,5,11.226c0,6.92,9.226,17.135,9.226,17.135s9.226-10.215,9.226-17.135A9.22,9.22,0,0,0,14.226,2Zm0,12.522a3.3,3.3,0,1,1,3.3-3.3A3.3,3.3,0,0,1,14.226,14.522Z" transform="translate(1.59 0.636)" fill="#1babe2"/>
    </g>
    <g id="place_black_24dp-8" data-name="place_black_24dp" transform="translate(1893 2419.683)" opacity="0.3">
      <path id="Trazado_1-8" data-name="Trazado 1" d="M0,0H31.633V31.633H0Z" fill="none"/>
      <path id="Trazado_2-8" data-name="Trazado 2" d="M14.226,2A9.22,9.22,0,0,0,5,11.226c0,6.92,9.226,17.135,9.226,17.135s9.226-10.215,9.226-17.135A9.22,9.22,0,0,0,14.226,2Zm0,12.522a3.3,3.3,0,1,1,3.3-3.3A3.3,3.3,0,0,1,14.226,14.522Z" transform="translate(1.59 0.636)" fill="#1babe2"/>
    </g>
    <g id="place_black_24dp-9" data-name="place_black_24dp" transform="translate(1928.753 2321.683)" opacity="0.3">
      <path id="Trazado_1-9" data-name="Trazado 1" d="M0,0H31.633V31.633H0Z" fill="none"/>
      <path id="Trazado_2-9" data-name="Trazado 2" d="M14.226,2A9.22,9.22,0,0,0,5,11.226c0,6.92,9.226,17.135,9.226,17.135s9.226-10.215,9.226-17.135A9.22,9.22,0,0,0,14.226,2Zm0,12.522a3.3,3.3,0,1,1,3.3-3.3A3.3,3.3,0,0,1,14.226,14.522Z" transform="translate(1.59 0.636)" fill="#1babe2"/>
    </g>
    <g id="place_black_24dp-10" data-name="place_black_24dp" transform="translate(1928.753 2429.366)" opacity="0.3">
      <path id="Trazado_1-10" data-name="Trazado 1" d="M0,0H31.633V31.633H0Z" fill="none"/>
      <path id="Trazado_2-10" data-name="Trazado 2" d="M14.226,2A9.22,9.22,0,0,0,5,11.226c0,6.92,9.226,17.135,9.226,17.135s9.226-10.215,9.226-17.135A9.22,9.22,0,0,0,14.226,2Zm0,12.522a3.3,3.3,0,1,1,3.3-3.3A3.3,3.3,0,0,1,14.226,14.522Z" transform="translate(1.59 0.636)" fill="#1babe2"/>
    </g>
    <g id="place_black_24dp-11" data-name="place_black_24dp" transform="translate(1993.753 2653.366)" opacity="0.3">
      <path id="Trazado_1-11" data-name="Trazado 1" d="M0,0H31.633V31.633H0Z" fill="none"/>
      <path id="Trazado_2-11" data-name="Trazado 2" d="M14.226,2A9.22,9.22,0,0,0,5,11.226c0,6.92,9.226,17.135,9.226,17.135s9.226-10.215,9.226-17.135A9.22,9.22,0,0,0,14.226,2Zm0,12.522a3.3,3.3,0,1,1,3.3-3.3A3.3,3.3,0,0,1,14.226,14.522Z" transform="translate(1.59 0.636)" fill="#1babe2"/>
    </g>
    <g id="place_black_24dp-12" data-name="place_black_24dp" transform="translate(2200.753 2572.55)" opacity="0.3">
      <path id="Trazado_1-12" data-name="Trazado 1" d="M0,0H31.633V31.633H0Z" fill="none"/>
      <path id="Trazado_2-12" data-name="Trazado 2" d="M14.226,2A9.22,9.22,0,0,0,5,11.226c0,6.92,9.226,17.135,9.226,17.135s9.226-10.215,9.226-17.135A9.22,9.22,0,0,0,14.226,2Zm0,12.522a3.3,3.3,0,1,1,3.3-3.3A3.3,3.3,0,0,1,14.226,14.522Z" transform="translate(1.59 0.636)" fill="#1babe2"/>
    </g>
    <g id="place_black_24dp-13" data-name="place_black_24dp" transform="translate(2152.753 2488.817)" opacity="0.3">
      <path id="Trazado_1-13" data-name="Trazado 1" d="M0,0H31.633V31.633H0Z" fill="none"/>
      <path id="Trazado_2-13" data-name="Trazado 2" d="M14.226,2A9.22,9.22,0,0,0,5,11.226c0,6.92,9.226,17.135,9.226,17.135s9.226-10.215,9.226-17.135A9.22,9.22,0,0,0,14.226,2Zm0,12.522a3.3,3.3,0,1,1,3.3-3.3A3.3,3.3,0,0,1,14.226,14.522Z" transform="translate(1.59 0.636)" fill="#1babe2"/>
    </g>
    <g id="place_black_24dp-14" data-name="place_black_24dp" transform="translate(2359.753 2296.817)" opacity="0.3">
      <path id="Trazado_1-14" data-name="Trazado 1" d="M0,0H31.633V31.633H0Z" fill="none"/>
      <path id="Trazado_2-14" data-name="Trazado 2" d="M14.226,2A9.22,9.22,0,0,0,5,11.226c0,6.92,9.226,17.135,9.226,17.135s9.226-10.215,9.226-17.135A9.22,9.22,0,0,0,14.226,2Zm0,12.522a3.3,3.3,0,1,1,3.3-3.3A3.3,3.3,0,0,1,14.226,14.522Z" transform="translate(1.59 0.636)" fill="#1babe2"/>
    </g>
    <g id="place_black_24dp-15" data-name="place_black_24dp" transform="translate(2292.753 2547)" opacity="0.3">
      <path id="Trazado_1-15" data-name="Trazado 1" d="M0,0H31.633V31.633H0Z" fill="none"/>
      <path id="Trazado_2-15" data-name="Trazado 2" d="M14.226,2A9.22,9.22,0,0,0,5,11.226c0,6.92,9.226,17.135,9.226,17.135s9.226-10.215,9.226-17.135A9.22,9.22,0,0,0,14.226,2Zm0,12.522a3.3,3.3,0,1,1,3.3-3.3A3.3,3.3,0,0,1,14.226,14.522Z" transform="translate(1.59 0.636)" fill="#1babe2"/>
    </g>
    <g id="place_black_24dp-16" data-name="place_black_24dp" transform="translate(2317.753 2600.366)" opacity="0.3">
      <path id="Trazado_1-16" data-name="Trazado 1" d="M0,0H31.633V31.633H0Z" fill="none"/>
      <path id="Trazado_2-16" data-name="Trazado 2" d="M14.226,2A9.22,9.22,0,0,0,5,11.226c0,6.92,9.226,17.135,9.226,17.135s9.226-10.215,9.226-17.135A9.22,9.22,0,0,0,14.226,2Zm0,12.522a3.3,3.3,0,1,1,3.3-3.3A3.3,3.3,0,0,1,14.226,14.522Z" transform="translate(1.59 0.636)" fill="#1babe2"/>
    </g>
    <g id="place_black_24dp-17" data-name="place_black_24dp" transform="translate(2456.753 2765)" opacity="0.3">
      <path id="Trazado_1-17" data-name="Trazado 1" d="M0,0H31.633V31.633H0Z" fill="none"/>
      <path id="Trazado_2-17" data-name="Trazado 2" d="M14.226,2A9.22,9.22,0,0,0,5,11.226c0,6.92,9.226,17.135,9.226,17.135s9.226-10.215,9.226-17.135A9.22,9.22,0,0,0,14.226,2Zm0,12.522a3.3,3.3,0,1,1,3.3-3.3A3.3,3.3,0,0,1,14.226,14.522Z" transform="translate(1.59 0.636)" fill="#1babe2"/>
    </g>
    <g id="place_black_24dp-18" data-name="place_black_24dp" transform="translate(1920.753 2394.183)" opacity="0.3">
      <path id="Trazado_1-18" data-name="Trazado 1" d="M0,0H31.633V31.633H0Z" fill="none"/>
      <path id="Trazado_2-18" data-name="Trazado 2" d="M14.226,2A9.22,9.22,0,0,0,5,11.226c0,6.92,9.226,17.135,9.226,17.135s9.226-10.215,9.226-17.135A9.22,9.22,0,0,0,14.226,2Zm0,12.522a3.3,3.3,0,1,1,3.3-3.3A3.3,3.3,0,0,1,14.226,14.522Z" transform="translate(1.59 0.636)" fill="#1babe2"/>
    </g>
    <g id="place_black_24dp-19" data-name="place_black_24dp" transform="translate(1857 2457.183)" opacity="0.3">
      <path id="Trazado_1-19" data-name="Trazado 1" d="M0,0H31.633V31.633H0Z" fill="none"/>
      <path id="Trazado_2-19" data-name="Trazado 2" d="M14.226,2A9.22,9.22,0,0,0,5,11.226c0,6.92,9.226,17.135,9.226,17.135s9.226-10.215,9.226-17.135A9.22,9.22,0,0,0,14.226,2Zm0,12.522a3.3,3.3,0,1,1,3.3-3.3A3.3,3.3,0,0,1,14.226,14.522Z" transform="translate(1.59 0.636)" fill="#1babe2"/>
    </g>
    <g id="place_black_24dp-20" data-name="place_black_24dp" transform="translate(1588 2604.183)" opacity="0.3">
      <path id="Trazado_1-20" data-name="Trazado 1" d="M0,0H31.633V31.633H0Z" fill="none"/>
      <path id="Trazado_2-20" data-name="Trazado 2" d="M14.226,2A9.22,9.22,0,0,0,5,11.226c0,6.92,9.226,17.135,9.226,17.135s9.226-10.215,9.226-17.135A9.22,9.22,0,0,0,14.226,2Zm0,12.522a3.3,3.3,0,1,1,3.3-3.3A3.3,3.3,0,0,1,14.226,14.522Z" transform="translate(1.59 0.636)" fill="#1babe2"/>
    </g>
  </g>
</svg>
